<svg width="259" height="203" viewBox="0 0 259 203" fill="none" xmlns="http://www.w3.org/2000/svg">
<path d="M0.602411 187.181C0.212582 186.042 0 184.82 0 183.548V11.1894C0 5.00917 5.00903 0 11.1894 0H86.6634C90.326 0 93.8619 1.34831 96.5959 3.78568L116.959 21.9535C119.693 24.3909 123.227 25.7392 126.891 25.7392H211.852C218.033 25.7392 223.042 30.7482 223.042 36.9286V51.5176L0.602411 187.181Z" fill="#78B483"/>
<path d="M257.641 65.7032L221.974 194.029C220.578 199.051 216.005 202.527 210.791 202.527H11.6139C3.95376 202.527 -1.60554 195.238 0.420449 187.851L30.1605 79.411C31.4935 74.5505 35.9114 71.1811 40.9513 71.1811H136.475C139.138 71.1811 141.753 70.4682 144.047 69.1165L170.418 53.5822C172.712 52.2304 175.327 51.5176 177.99 51.5176H246.86C254.261 51.5176 259.622 58.5731 257.641 65.7032Z" fill="#A6DBB0"/>
<circle cx="134.528" cy="139.764" r="32.083" fill="#0F561C"/>
<path d="M121.695 139.764L131.32 149.389L150.57 130.139" stroke="#A6DBB0" stroke-width="4" stroke-linecap="round" stroke-linejoin="round"/>
</svg>
