<svg width="286" height="303" viewBox="0 0 286 303" fill="none" xmlns="http://www.w3.org/2000/svg">
<path d="M0.602411 287.181C0.212582 286.042 0 284.82 0 283.548V111.189C0 105.009 5.00903 100 11.1894 100H86.6634C90.326 100 93.8619 101.348 96.5959 103.786L116.959 121.954C119.693 124.391 123.227 125.739 126.891 125.739H211.852C218.033 125.739 223.042 130.748 223.042 136.929V151.518L0.602411 287.181Z" fill="#F3AB47"/>
<path d="M257.641 165.703L221.974 294.029C220.578 299.051 216.005 302.527 210.791 302.527H11.6139C3.95376 302.527 -1.60554 295.238 0.420449 287.851L30.1605 179.411C31.4935 174.551 35.9114 171.181 40.9513 171.181H136.475C139.138 171.181 141.753 170.468 144.047 169.116L170.418 153.582C172.712 152.23 175.327 151.518 177.99 151.518H246.86C254.261 151.518 259.622 158.573 257.641 165.703Z" fill="#FFE36C"/>
<path d="M58.8625 81.596C80.1214 48.2898 124.355 38.5237 157.661 59.7825C187.696 78.9533 198.584 116.806 184.845 148.481L195.032 154.985C196.37 155.839 196.826 157.536 196.174 158.937L196.227 158.93L203.06 163.291L203.111 163.211C203.852 162.049 205.395 161.709 206.556 162.45L277.779 207.911C280.684 209.765 281.536 213.625 279.682 216.53L274.114 225.254C272.259 228.16 268.4 229.011 265.494 227.157L194.271 181.696C193.11 180.955 192.769 179.412 193.51 178.251L193.662 178.014L186.83 173.654L186.812 173.604C185.816 174.784 184.085 175.085 182.748 174.231L172.555 167.726C149.607 193.507 110.702 199.56 80.6761 180.395C47.3698 159.136 37.6035 114.902 58.8625 81.596ZM139.675 65.716C109.193 54.512 75.3984 70.1403 64.1942 100.623C52.99 131.106 68.6186 164.9 99.1013 176.104C129.584 187.309 163.378 171.68 174.583 141.197C185.787 110.714 170.158 76.9203 139.675 65.716Z" fill="#054239"/>
<path d="M196.456 159.762L187.058 174.485L193.889 178.846L203.288 164.123L196.456 159.762Z" fill="#D0D0D0"/>
<path d="M191.285 167.864L187.058 174.486L193.889 178.847L198.116 172.225L191.285 167.864Z" fill="#B2B2B2"/>
<path d="M279.903 217.35L274.334 226.075C272.479 228.98 268.621 229.832 265.715 227.978L194.492 182.517C193.331 181.775 192.99 180.233 193.731 179.072L203.332 164.031C204.073 162.87 205.616 162.529 206.777 163.27L278 208.731C280.905 210.586 281.757 214.444 279.903 217.35Z" fill="#503949"/>
<path d="M274.372 218.146C272.517 221.051 268.658 221.903 265.752 220.049L195.996 175.524L193.731 179.071C192.99 180.233 193.33 181.775 194.492 182.517L265.714 227.977C268.62 229.832 272.479 228.98 274.334 226.074L279.902 217.35C281.378 215.037 281.135 212.123 279.511 210.094L274.372 218.146Z" fill="#3E2C3B"/>
<path d="M175.44 159.006L169.539 166.589C146.392 190.669 110.004 197.738 78.5996 177.958C69.7558 172.388 61.863 163.203 56.4856 154.992C62.076 165.332 70.2857 174.443 80.8969 181.216C110.922 200.38 149.815 194.316 172.764 168.538L182.969 175.052C184.426 175.982 186.362 175.554 187.292 174.097L190.705 168.749L175.44 159.006Z" fill="#002623"/>
<path opacity="0.5" d="M174.583 141.197C185.787 110.714 170.159 76.9201 139.676 65.7158C109.193 54.5116 75.3986 70.1401 64.1943 100.623C52.9901 131.106 68.6186 164.9 99.1015 176.104C129.585 187.309 163.379 171.68 174.583 141.197Z" fill="#C1E6FB"/>
<path opacity="0.5" d="M117.906 119.492C135.994 109.304 144.774 90.6014 137.518 77.7183C130.261 64.8351 109.716 62.65 91.6285 72.8377C73.541 83.0254 64.7606 101.728 72.017 114.611C79.2733 127.494 99.8186 129.679 117.906 119.492Z" fill="#E4F4FE"/>
<path d="M200.963 165.715C200.517 166.415 199.579 166.622 198.879 166.175L196.123 164.416C195.423 163.969 195.216 163.032 195.663 162.332C196.11 161.632 197.047 161.425 197.747 161.872L200.503 163.631C201.203 164.078 201.41 165.015 200.963 165.715Z" fill="#EDEDED"/>
<path d="M273.542 210.798C272.785 211.983 271.196 212.334 270.01 211.577L206.335 170.934C205.15 170.177 204.799 168.588 205.556 167.403C206.312 166.217 207.901 165.867 209.087 166.623L272.762 207.266C273.947 208.023 274.298 209.612 273.542 210.798Z" fill="#694D5A"/>
</svg>
