<svg width="259" height="203" viewBox="0 0 259 203" fill="none" xmlns="http://www.w3.org/2000/svg">
<path d="M0.602411 187.181C0.212582 186.042 0 184.82 0 183.548V11.1894C0 5.00917 5.00903 0 11.1894 0H86.6634C90.326 0 93.8619 1.34831 96.5959 3.78568L116.959 21.9535C119.693 24.3909 123.227 25.7392 126.891 25.7392H211.852C218.033 25.7392 223.042 30.7482 223.042 36.9286V51.5176L0.602411 187.181Z" fill="#FFBC78"/>
<path d="M257.641 65.7032L221.974 194.029C220.578 199.051 216.005 202.527 210.791 202.527H11.6139C3.95376 202.527 -1.60554 195.238 0.420449 187.851L30.1605 79.411C31.4935 74.5505 35.9114 71.1811 40.9513 71.1811H136.475C139.138 71.1811 141.753 70.4682 144.047 69.1165L170.418 53.5822C172.712 52.2304 175.327 51.5176 177.99 51.5176H246.86C254.261 51.5176 259.622 58.5731 257.641 65.7032Z" fill="#FFDCB8"/>
<g clip-path="url(#clip0_180_826)">
<path d="M131.761 139.764C131.761 136.727 130.68 134.135 128.519 131.986C126.358 129.838 123.749 128.764 120.694 128.764C117.64 128.764 115.031 129.838 112.87 131.986C110.709 134.135 109.628 136.727 109.628 139.764C109.628 142.8 110.709 145.393 112.87 147.541C115.031 149.689 117.64 150.764 120.694 150.764C123.749 150.764 126.358 149.689 128.519 147.541C130.68 145.393 131.761 142.8 131.761 139.764ZM164.961 161.764C164.961 160.274 164.414 158.985 163.318 157.896C162.223 156.808 160.926 156.264 159.428 156.264C157.929 156.264 156.632 156.808 155.537 157.896C154.442 158.985 153.894 160.274 153.894 161.764C153.894 163.282 154.435 164.578 155.516 165.652C156.596 166.727 157.9 167.264 159.428 167.264C160.955 167.264 162.259 166.727 163.34 165.652C164.421 164.578 164.961 163.282 164.961 161.764ZM164.961 117.764C164.961 116.274 164.414 114.985 163.318 113.896C162.223 112.808 160.926 112.264 159.428 112.264C157.929 112.264 156.632 112.808 155.537 113.896C154.442 114.985 153.894 116.274 153.894 117.764C153.894 119.282 154.435 120.578 155.516 121.652C156.596 122.727 157.9 123.264 159.428 123.264C160.955 123.264 162.259 122.727 163.34 121.652C164.421 120.578 164.961 119.282 164.961 117.764ZM148.361 135.854V143.803C148.361 144.089 148.26 144.368 148.059 144.641C147.857 144.913 147.626 145.063 147.367 145.092L140.666 146.123C140.349 147.126 139.888 148.214 139.283 149.389C140.263 150.764 141.56 152.411 143.174 154.33C143.375 154.645 143.476 154.932 143.476 155.189C143.476 155.533 143.375 155.805 143.174 156.006C142.511 156.865 141.322 158.147 139.607 159.852C137.893 161.556 136.761 162.408 136.214 162.408C135.897 162.408 135.594 162.308 135.306 162.107L130.335 158.24C129.268 158.785 128.159 159.229 127.006 159.572C126.689 162.666 126.358 164.886 126.012 166.232C125.81 166.92 125.378 167.264 124.715 167.264H116.674C116.357 167.264 116.069 167.156 115.81 166.941C115.55 166.727 115.406 166.476 115.377 166.189L114.383 159.615C113.403 159.329 112.322 158.885 111.141 158.283L106.04 162.107C105.838 162.308 105.55 162.408 105.175 162.408C104.858 162.408 104.556 162.294 104.267 162.064C100.117 158.255 98.0424 155.963 98.0424 155.189C98.0424 154.932 98.1433 154.66 98.345 154.373C98.6332 153.972 99.224 153.213 100.117 152.096C101.011 150.979 101.688 150.105 102.149 149.475C101.486 148.214 100.982 147.04 100.636 145.951L94.0653 144.92C93.7771 144.891 93.5322 144.755 93.3304 144.512C93.1287 144.268 93.0278 143.989 93.0278 143.674V135.725C93.0278 135.438 93.1287 135.159 93.3304 134.887C93.5322 134.615 93.7627 134.464 94.0221 134.436L100.723 133.404C101.04 132.402 101.501 131.313 102.106 130.139C101.126 128.764 99.8292 127.117 98.2153 125.197C98.0136 124.882 97.9127 124.596 97.9127 124.338C97.9127 123.994 98.0136 123.708 98.2153 123.479C98.8494 122.619 100.031 121.344 101.76 119.654C103.489 117.964 104.628 117.119 105.175 117.119C105.492 117.119 105.795 117.219 106.083 117.42L111.054 121.287C112.034 120.771 113.144 120.313 114.383 119.912C114.7 116.818 115.031 114.613 115.377 113.295C115.579 112.607 116.011 112.264 116.674 112.264H124.715C125.032 112.264 125.32 112.371 125.579 112.586C125.839 112.801 125.983 113.051 126.012 113.338L127.006 119.912C127.986 120.199 129.067 120.643 130.248 121.244L135.349 117.42C135.58 117.219 135.868 117.119 136.214 117.119C136.531 117.119 136.833 117.234 137.122 117.463C141.272 121.273 143.347 123.564 143.347 124.338C143.347 124.567 143.246 124.839 143.044 125.154C142.698 125.613 142.093 126.386 141.228 127.475C140.364 128.563 139.715 129.423 139.283 130.053C139.946 131.428 140.436 132.602 140.753 133.576L147.324 134.564C147.612 134.622 147.857 134.772 148.059 135.016C148.26 135.259 148.361 135.538 148.361 135.854ZM176.028 158.756V164.771C176.028 165.23 173.881 165.674 169.587 166.104C169.241 166.877 168.809 167.622 168.29 168.338C169.76 171.575 170.494 173.551 170.494 174.268C170.494 174.382 170.437 174.482 170.322 174.568C166.806 176.602 165.019 177.619 164.961 177.619C164.731 177.619 164.068 176.946 162.973 175.6C161.877 174.253 161.128 173.279 160.725 172.678C160.148 172.735 159.716 172.764 159.428 172.764C159.14 172.764 158.707 172.735 158.131 172.678C157.727 173.279 156.978 174.253 155.883 175.6C154.788 176.946 154.125 177.619 153.894 177.619C153.837 177.619 152.05 176.602 148.534 174.568C148.419 174.482 148.361 174.382 148.361 174.268C148.361 173.551 149.096 171.575 150.566 168.338C150.047 167.622 149.615 166.877 149.269 166.104C144.975 165.674 142.828 165.23 142.828 164.771V158.756C142.828 158.298 144.975 157.854 149.269 157.424C149.644 156.593 150.076 155.848 150.566 155.189C149.096 151.952 148.361 149.976 148.361 149.26C148.361 149.145 148.419 149.045 148.534 148.959C148.649 148.902 149.154 148.615 150.047 148.1C150.941 147.584 151.791 147.097 152.598 146.639C153.405 146.18 153.837 145.951 153.894 145.951C154.125 145.951 154.788 146.617 155.883 147.949C156.978 149.281 157.727 150.248 158.131 150.85C158.707 150.792 159.14 150.764 159.428 150.764C159.716 150.764 160.148 150.792 160.725 150.85C162.194 148.816 163.52 147.212 164.702 146.037L164.961 145.951C165.076 145.951 166.863 146.954 170.322 148.959C170.437 149.045 170.494 149.145 170.494 149.26C170.494 149.976 169.76 151.952 168.29 155.189C168.78 155.848 169.212 156.593 169.587 157.424C173.881 157.854 176.028 158.298 176.028 158.756ZM176.028 114.756V120.771C176.028 121.23 173.881 121.674 169.587 122.104C169.241 122.877 168.809 123.622 168.29 124.338C169.76 127.575 170.494 129.551 170.494 130.268C170.494 130.382 170.437 130.482 170.322 130.568C166.806 132.602 165.019 133.619 164.961 133.619C164.731 133.619 164.068 132.946 162.973 131.6C161.877 130.253 161.128 129.279 160.725 128.678C160.148 128.735 159.716 128.764 159.428 128.764C159.14 128.764 158.707 128.735 158.131 128.678C157.727 129.279 156.978 130.253 155.883 131.6C154.788 132.946 154.125 133.619 153.894 133.619C153.837 133.619 152.05 132.602 148.534 130.568C148.419 130.482 148.361 130.382 148.361 130.268C148.361 129.551 149.096 127.575 150.566 124.338C150.047 123.622 149.615 122.877 149.269 122.104C144.975 121.674 142.828 121.23 142.828 120.771V114.756C142.828 114.298 144.975 113.854 149.269 113.424C149.644 112.593 150.076 111.848 150.566 111.189C149.096 107.952 148.361 105.976 148.361 105.26C148.361 105.145 148.419 105.045 148.534 104.959C148.649 104.902 149.154 104.615 150.047 104.1C150.941 103.584 151.791 103.097 152.598 102.639C153.405 102.18 153.837 101.951 153.894 101.951C154.125 101.951 154.788 102.617 155.883 103.949C156.978 105.281 157.727 106.248 158.131 106.85C158.707 106.792 159.14 106.764 159.428 106.764C159.716 106.764 160.148 106.792 160.725 106.85C162.194 104.816 163.52 103.212 164.702 102.037L164.961 101.951C165.076 101.951 166.863 102.954 170.322 104.959C170.437 105.045 170.494 105.145 170.494 105.26C170.494 105.976 169.76 107.952 168.29 111.189C168.78 111.848 169.212 112.593 169.587 113.424C173.881 113.854 176.028 114.298 176.028 114.756Z" fill="#F57C00"/>
</g>
<defs>
<clipPath id="clip0_180_826">
<rect width="83" height="77" fill="white" transform="translate(93.0278 101.264)"/>
</clipPath>
</defs>
</svg>
