<svg width="259" height="203" viewBox="0 0 259 203" fill="none" xmlns="http://www.w3.org/2000/svg">
<path d="M0.602411 187.181C0.212582 186.042 0 184.82 0 183.548V11.1894C0 5.00917 5.00903 0 11.1894 0H86.6634C90.326 0 93.8619 1.34831 96.5959 3.78568L116.959 21.9535C119.693 24.3909 123.227 25.7392 126.891 25.7392H211.852C218.033 25.7392 223.042 30.7482 223.042 36.9286V51.5176L0.602411 187.181Z" fill="#9BBDD7"/>
<path d="M257.641 65.7032L221.974 194.029C220.578 199.051 216.005 202.527 210.791 202.527H11.6139C3.95376 202.527 -1.60554 195.238 0.420449 187.851L30.1605 79.411C31.4935 74.5505 35.9114 71.1811 40.9513 71.1811H136.475C139.138 71.1811 141.753 70.4682 144.047 69.1165L170.418 53.5822C172.712 52.2304 175.327 51.5176 177.99 51.5176H246.86C254.261 51.5176 259.622 58.5731 257.641 65.7032Z" fill="#B8D4E8"/>
<path d="M174.565 130.977C174.387 131.302 174.138 131.582 173.836 131.796C173.534 132.01 173.187 132.153 172.822 132.213C167.24 133.127 162.671 134.31 158.51 137.112C154.665 139.707 151.205 143.717 147.734 149.631L158.393 155.462C158.809 155.691 159.15 156.038 159.372 156.458C159.594 156.879 159.688 157.355 159.642 157.829C159.597 158.302 159.414 158.752 159.116 159.123C158.818 159.493 158.418 159.769 157.965 159.915L122.653 171.151C122.339 171.25 122.008 171.286 121.68 171.254C121.352 171.222 121.034 171.124 120.745 170.966C120.456 170.808 120.202 170.593 119.999 170.334C119.795 170.075 119.646 169.777 119.561 169.459L109.979 133.663C109.858 133.203 109.874 132.718 110.025 132.267C110.177 131.816 110.457 131.419 110.831 131.126C111.205 130.832 111.657 130.654 112.131 130.614C112.605 130.574 113.081 130.674 113.499 130.901L124.236 136.775C130.111 127.118 137.823 121.748 147.188 120.8C154.946 120.015 163.83 122.327 173.597 127.67C174.164 127.98 174.584 128.503 174.766 129.123C174.948 129.743 174.875 130.41 174.565 130.977Z" fill="#1976D2"/>
</svg>
